<svg width="512" height="512" viewBox="0 0 512 512" fill="none" xmlns="http://www.w3.org/2000/svg">
<path d="M507.706 278.083L507.705 278.083L480.987 350.18C480.987 350.181 480.986 350.182 480.986 350.183C480.747 350.821 480.37 351.395 479.886 351.861C479.402 352.329 478.822 352.677 478.191 352.884L478.179 352.888L478.166 352.893L82.0478 485.745L82.026 485.752L82.0043 485.759C81.1301 486.064 80.1841 486.08 79.3009 485.805C78.4172 485.53 77.636 484.976 77.0746 484.216L77.07 484.21L77.0654 484.204L33.6418 425.888C33.6387 425.883 33.6356 425.879 33.6324 425.875C33.182 425.254 32.889 424.528 32.7826 423.759C32.6764 422.992 32.7604 422.21 33.0258 421.485C33.028 421.479 33.0302 421.473 33.0324 421.467L123.357 185.968L123.366 185.946L123.375 185.923C123.701 185.041 124.284 184.286 125.039 183.757C125.794 183.228 126.686 182.948 127.597 182.948H127.597H237.264C237.979 182.955 238.683 183.134 239.319 183.474C239.958 183.816 240.51 184.311 240.926 184.92C241.341 185.528 241.607 186.232 241.698 186.972C241.788 187.711 241.701 188.461 241.443 189.158L241.432 189.189L241.421 189.22L198.583 311.224C197.768 313.435 197.586 315.831 198.058 318.14C198.532 320.462 199.649 322.607 201.284 324.322C202.92 326.038 205.008 327.256 207.309 327.829C209.58 328.394 211.963 328.306 214.186 327.578L363.373 284.216L363.448 284.194L363.522 284.169C365.407 283.541 367.113 282.471 368.502 281.052C369.891 279.632 370.924 277.903 371.518 276.007C372.113 274.112 372.253 272.103 371.928 270.143C371.604 268.184 370.822 266.327 369.646 264.727L369.643 264.723L283.885 148.334L283.88 148.328C282.705 146.739 281.17 145.451 279.399 144.572C277.639 143.699 275.697 143.256 273.732 143.282H8.51191H8.51117C7.78967 143.282 7.07716 143.106 6.43412 142.767C5.79088 142.427 5.23465 141.933 4.81564 141.324C4.39651 140.714 4.12793 140.008 4.03569 139.266C3.94358 138.525 4.03049 137.773 4.28796 137.075C4.28833 137.074 4.28869 137.073 4.28906 137.072L44.4579 28.9825L44.4603 28.976C44.7865 28.0937 45.3695 27.3396 46.1247 26.8104C46.8795 26.2815 47.7719 26.0009 48.6824 26.0011H48.6832H320.419H320.451L320.483 26.0006C321.181 25.9895 321.872 26.1455 322.502 26.4578C323.131 26.7702 323.682 27.2309 324.107 27.8051L324.114 27.8143L507.096 273.662C507.099 273.666 507.102 273.67 507.105 273.674C507.556 274.295 507.849 275.022 507.955 275.791C508.062 276.565 507.976 277.353 507.706 278.083Z" fill="black" stroke="white" stroke-width="8"/>
</svg>
