<svg width="342" height="94" viewBox="0 0 342 94" fill="none" xmlns="http://www.w3.org/2000/svg">
<path d="M0.98941 0.880737H22.4348V92.9951H0.98941V0.880737Z" fill="#333333"/>
<path d="M31.5311 0.880737H53.5234L65.2392 32.7753C67.7148 40.1157 69.5858 45.4698 70.9963 51.0831H71.4857V0.880737H88.0663V92.9951H69.8737L54.6748 55.1131C52.0553 48.1469 49.4358 40.2884 48.4571 36.8053H47.9389V92.9951H31.3871L31.5311 0.880737Z" fill="#333333"/>
<path d="M96.702 0.880737H118.637C140.082 0.880737 155.54 7.73174 155.54 46.7364C155.54 85.7411 139.708 93.0814 118.637 93.0814H96.702V0.880737ZM121.256 75.2631C131.59 75.2631 133.836 69.1605 133.836 46.7364C133.836 24.3123 131.59 19.0733 121.141 19.0733H118.262V75.2631H121.256Z" fill="#333333"/>
<path d="M161.729 0.880737H183.059V92.9951H161.643L161.729 0.880737Z" fill="#333333"/>
<path d="M187.147 0.880737H208.333L214.292 35.6251C216.048 45.8441 217.17 52.3496 218.782 66.1668H219.3C220.797 52.3496 221.891 46.2183 223.647 36.1433L229.75 0.880737H248.46L228.512 93.4557H207.066L187.147 0.880737Z" fill="#333333"/>
<path d="M252.433 0.880737H273.849V92.9951H252.433V0.880737Z" fill="#333333"/>
<path d="M282.946 0.880737H304.88C326.326 0.880737 341.784 7.73174 341.784 46.7364C341.784 85.7411 325.952 93.0814 304.88 93.0814H282.946V0.880737ZM307.5 75.2631C317.834 75.2631 320.079 69.1605 320.079 46.7364C320.079 24.3123 317.834 19.0733 307.385 19.0733H304.506V75.2631H307.5Z" fill="#333333"/>
</svg>
